<svg fill="#000000" xmlns="http://www.w3.org/2000/svg"  viewBox="0 0 50 50" width="250px" height="250px"><path d="M37.784,20.495c-0.599,0.193-0.79,0.203-0.79,0.203v17.36c-1.032,0.558-1.871,0.821-2.759,0.821 c-1.082,0-1.697-0.249-2.52-1.518c-1.749-2.701-7.469-11.89-7.469-11.89v11.533l2.251,0.469c0,0-0.066,1.313-2.025,1.463 c-1.726,0.13-5.477,0.318-5.477,0.318c0-0.469,0.096-1.119,0.844-1.312c0.352-0.091,1.406-0.375,1.406-0.375V22.001h-2.251 c0-1.031,0.297-1.841,1.388-1.921l5.832-0.329l7.783,12.002v-10.69l-2.251-0.188c0-0.937,0.901-1.513,1.675-1.593L38.497,19 C38.497,19.656,38.467,20.274,37.784,20.495z"/><path fill="none" stroke="#000000" stroke-linejoin="round" stroke-miterlimit="10" stroke-width="2" d="M42.129,43.121l-27,1.742 C13.976,44.937,13,44.022,13,42.867V16.875c0-1.055,0.819-1.928,1.871-1.996l27-1.742C43.024,13.063,44,13.978,44,15.133v25.992 C44,42.179,43.181,43.053,42.129,43.121z"/><path fill="none" stroke="#000000" stroke-linecap="round" stroke-linejoin="round" stroke-miterlimit="10" stroke-width="2" d="M13,43.6V15L6,8v25.739c0,0.821,0.252,1.622,0.723,2.294l6.797,8.179"/><path fill="none" stroke="#000000" stroke-linecap="round" stroke-linejoin="round" stroke-miterlimit="10" stroke-width="2" d="M42.564,13.065l-27.756,1.817c-1.149,0.075-2.275-0.349-3.09-1.163L6,8l25.567-1.852c0.951-0.069,1.896,0.204,2.663,0.77 l8.925,6.583"/></svg>