<svg width="160" height="62" viewBox="0 0 160 62" fill="none" xmlns="http://www.w3.org/2000/svg">
<circle cx="31" cy="31" r="30.5" stroke="white" stroke-opacity="0.5"/>
<circle cx="62" cy="31" r="30.5" stroke="white" stroke-opacity="0.5"/>
<path d="M45.0663 43H39.8163L36.6663 34.936H26.2083L23.3523 43H18.3123L29.0643 15.28H33.2223L45.0663 43ZM27.5523 31.156H35.1543L31.1643 20.95L27.5523 31.156ZM57.6311 27.88C57.3511 27.656 56.9171 27.474 56.3291 27.334C55.7411 27.194 55.2371 27.124 54.8171 27.124C54.2571 27.124 53.7951 27.264 53.4311 27.544C53.0671 27.796 52.7451 28.146 52.4651 28.594C52.1851 29.014 51.9471 29.504 51.7511 30.064C51.5551 30.624 51.3731 31.198 51.2051 31.786V43H46.5851V23.68H50.1971L50.4071 27.712H50.5751C50.8551 27.124 51.1491 26.55 51.4571 25.99C51.7651 25.43 52.1151 24.94 52.5071 24.52C52.8991 24.072 53.3471 23.722 53.8511 23.47C54.3831 23.19 54.9991 23.05 55.6991 23.05C56.8191 23.05 57.8691 23.414 58.8491 24.142L57.6311 27.88ZM62.2618 26.494H59.8678V23.974L62.5978 23.554L63.3538 17.842H66.8818V23.68H70.5778V26.494H66.8818V37.582C66.8818 38.422 66.9658 38.996 67.1338 39.304C67.3018 39.584 67.6238 39.724 68.0998 39.724C68.4638 39.724 68.8278 39.654 69.1918 39.514C69.5558 39.374 70.0878 39.108 70.7878 38.716L71.5438 42.034C71.0118 42.482 70.2558 42.832 69.2758 43.084C68.3238 43.364 67.3718 43.504 66.4198 43.504C65.5798 43.504 64.8798 43.392 64.3198 43.168C63.7878 42.944 63.3678 42.622 63.0598 42.202C62.7518 41.754 62.5418 41.222 62.4298 40.606C62.3178 39.99 62.2618 39.304 62.2618 38.548V26.494Z" fill="#FFBCA2"/>
<path d="M96.5594 15.07C98.7434 15.07 100.675 15.448 102.355 16.204C104.035 16.96 105.449 17.996 106.597 19.312C107.745 20.6 108.613 22.098 109.201 23.806C109.789 25.514 110.083 27.306 110.083 29.182C110.083 30.974 109.803 32.71 109.243 34.39C108.711 36.07 107.899 37.568 106.807 38.884C105.715 40.2 104.357 41.278 102.733 42.118C101.109 42.93 99.2194 43.378 97.0634 43.462C98.0714 43.574 99.0374 43.798 99.9614 44.134C100.885 44.47 101.795 44.806 102.691 45.142C103.615 45.506 104.539 45.828 105.463 46.108C106.415 46.388 107.423 46.528 108.487 46.528C109.103 46.528 109.747 46.458 110.419 46.318C111.091 46.206 111.805 45.996 112.561 45.688L111.469 49.804C110.965 50 110.461 50.126 109.957 50.182C109.481 50.266 109.005 50.308 108.529 50.308C107.353 50.308 106.219 50.112 105.127 49.72C104.063 49.356 102.999 48.95 101.935 48.502C100.899 48.082 99.8634 47.676 98.8274 47.284C97.8194 46.92 96.7974 46.738 95.7614 46.738C95.1454 46.738 94.3754 46.85 93.4514 47.074C92.5274 47.298 91.6314 47.732 90.7634 48.376L89.9234 45.352C90.6794 44.764 91.4914 44.316 92.3594 44.008C93.2554 43.7 94.1094 43.518 94.9214 43.462C92.9334 43.322 91.1834 42.846 89.6714 42.034C88.1874 41.222 86.9554 40.186 85.9754 38.926C84.9954 37.666 84.2534 36.224 83.7494 34.6C83.2734 32.976 83.0354 31.268 83.0354 29.476C83.0354 27.488 83.3294 25.626 83.9174 23.89C84.5334 22.126 85.4154 20.6 86.5634 19.312C87.7114 17.996 89.1254 16.96 90.8054 16.204C92.4854 15.448 94.4034 15.07 96.5594 15.07ZM96.4334 39.388C97.9454 39.388 99.2334 39.122 100.297 38.59C101.389 38.058 102.271 37.344 102.943 36.448C103.643 35.524 104.147 34.446 104.455 33.214C104.791 31.954 104.959 30.61 104.959 29.182C104.959 27.726 104.791 26.382 104.455 25.15C104.119 23.918 103.601 22.868 102.901 22C102.201 21.104 101.305 20.418 100.213 19.942C99.1494 19.438 97.8754 19.186 96.3914 19.186C94.9074 19.186 93.6474 19.438 92.6114 19.942C91.5754 20.418 90.7214 21.104 90.0494 22C89.4054 22.868 88.9294 23.918 88.6214 25.15C88.3414 26.354 88.2014 27.698 88.2014 29.182C88.2014 32.542 88.9014 35.09 90.3014 36.826C91.7014 38.534 93.7454 39.388 96.4334 39.388ZM118.337 23.68V36.238C118.337 37.386 118.631 38.268 119.219 38.884C119.835 39.472 120.619 39.766 121.571 39.766C122.551 39.766 123.447 39.444 124.259 38.8C125.071 38.128 125.673 37.176 126.065 35.944V23.68H130.727V43H127.115L126.863 40.312H126.695C126.387 40.956 125.995 41.488 125.519 41.908C125.043 42.3 124.511 42.622 123.923 42.874C123.363 43.098 122.775 43.252 122.159 43.336C121.543 43.448 120.941 43.504 120.353 43.504C119.429 43.504 118.561 43.392 117.749 43.168C116.965 42.944 116.265 42.58 115.649 42.076C115.061 41.544 114.585 40.858 114.221 40.018C113.885 39.15 113.717 38.086 113.717 36.826V23.68H118.337ZM140.231 43H135.611V23.68H140.231V43ZM134.939 17.464C134.939 17.072 135.009 16.694 135.149 16.33C135.317 15.966 135.541 15.644 135.821 15.364C136.101 15.056 136.409 14.818 136.745 14.65C137.109 14.482 137.501 14.398 137.921 14.398C138.313 14.398 138.691 14.482 139.055 14.65C139.419 14.818 139.741 15.056 140.021 15.364C140.329 15.644 140.567 15.966 140.735 16.33C140.903 16.694 140.987 17.072 140.987 17.464C140.987 17.884 140.903 18.276 140.735 18.64C140.567 18.976 140.329 19.284 140.021 19.564C139.741 19.844 139.419 20.068 139.055 20.236C138.691 20.376 138.313 20.446 137.921 20.446C137.109 20.446 136.409 20.152 135.821 19.564C135.233 18.976 134.939 18.276 134.939 17.464ZM152.801 27.418H144.401V23.68H157.589V27.418L148.517 39.262H158.009V43H143.981V39.262L152.801 27.418Z" fill="white"/>
</svg>
