<svg width="512" height="512" viewBox="0 0 512 512" fill="none" xmlns="http://www.w3.org/2000/svg">
<g clip-path="url(#clip0)">
<path d="M505.445 256.177L330.251 219.197L378.541 144.923C380.702 141.592 380.186 137.185 377.307 134.443C374.436 131.701 370.017 131.411 366.783 133.725L298.493 182.995L255.768 6.318C254.848 2.487 251.34 -0.145997 247.397 0.00800296C243.453 0.173003 240.179 3.105 239.582 7.004L212.606 182.323L145.251 133.726C142.025 131.407 137.598 131.702 134.727 134.444C131.848 137.186 131.332 141.593 133.501 144.924L182.896 220.908L6.63801 256.16C2.72701 256.942 -0.0639947 260.41 0.00100527 264.398C0.0740053 268.39 2.98501 271.761 6.92001 272.406L176.92 300.325L133.501 367.111C131.332 370.442 131.848 374.849 134.727 377.591C137.598 380.333 142.017 380.631 145.251 378.309L218.227 325.656L256.179 505.446C256.985 509.273 260.364 511.998 264.26 511.998C264.325 511.998 264.389 511.998 264.462 511.994C268.438 511.901 271.777 508.982 272.414 505.055L300.551 330.518L366.785 378.308C370.011 380.626 374.43 380.34 377.309 377.59C380.188 374.848 380.704 370.441 378.543 367.11L331.366 294.545L504.785 272.448C508.785 271.936 511.833 268.617 511.995 264.589C512.155 260.568 509.388 257.011 505.445 256.177ZM316.227 279.826C313.404 280.189 310.969 281.971 309.775 284.548C308.582 287.129 308.791 290.137 310.339 292.52L340.589 339.044L299.355 309.294C297.032 307.617 293.992 307.258 291.363 308.363C288.718 309.46 286.831 311.851 286.371 314.678L263.169 458.606L231.768 309.83C231.187 307.096 229.268 304.842 226.663 303.834C225.703 303.459 224.695 303.277 223.687 303.277C221.977 303.277 220.284 303.809 218.856 304.838L171.445 339.044L197.663 298.725C199.179 296.39 199.413 293.443 198.292 290.89C197.163 288.338 194.824 286.527 192.074 286.076L54.356 263.459L198.082 234.713C200.767 234.177 203.01 232.342 204.074 229.822C205.138 227.298 204.88 224.411 203.389 222.116L171.445 172.991L213.889 203.612C216.22 205.302 219.252 205.648 221.913 204.532C224.558 203.423 226.445 201.012 226.881 198.169L249.55 50.846L285.332 198.826C285.977 201.499 287.913 203.677 290.493 204.632C293.058 205.584 295.953 205.196 298.186 203.584L340.597 172.987L309.84 220.29C308.356 222.572 308.098 225.439 309.138 227.955C310.178 230.467 312.396 232.306 315.065 232.87L454.218 262.245L316.227 279.826Z" fill="white"/>
</g>
<defs>
<clipPath id="clip0">
<rect width="512" height="512" fill="white"/>
</clipPath>
</defs>
</svg>
