<svg width="189" height="26" viewBox="0 0 189 26" fill="none" xmlns="http://www.w3.org/2000/svg">
<path d="M49 26H0L24.5 0L49 26ZM13.3075 13.1309L16.6442 16.6702L19.981 13.1309L16.6442 9.58115L13.3075 13.1309ZM16.6442 25.0052L19.981 21.466L16.6442 17.9162L13.3075 21.466L16.6442 25.0052ZM32.4083 25.0052L35.745 21.466L32.4083 17.9162L29.019 21.466L32.4083 25.0052ZM28.4673 5.40314C28.4473 5.43762 28.4207 5.46941 28.3885 5.49738C27.3507 6.6178 26.2997 7.73822 25.2357 8.84817C25.1437 8.94241 25.2357 9.00524 25.2357 9.08901L28.3097 12.356L28.4542 12.4921L31.7909 8.96335L28.4673 5.40314ZM8.78847 25.0052L8.91984 24.8691L11.9938 21.6126C12.0428 21.5717 12.0702 21.5173 12.0702 21.4607C12.0702 21.4042 12.0428 21.3498 11.9938 21.3089C11.0611 20.3456 10.1547 19.3613 9.23512 18.3874L8.78847 17.9162L5.45174 21.466L8.78847 25.0052ZM17.2354 8.95288L20.5721 12.4921L20.6772 12.3979L23.8169 9.06806C23.922 8.95288 23.8169 8.89005 23.8169 8.80628L20.7429 5.56021L20.6115 5.42408L17.2354 8.95288ZM17.2354 17.3298L20.5721 20.8691L20.7429 20.7016C21.7413 19.6545 22.7528 18.6073 23.7643 17.4869C23.7926 17.4663 23.8152 17.4412 23.8307 17.4133C23.8461 17.3853 23.8541 17.3551 23.8541 17.3246C23.8541 17.2941 23.8461 17.2639 23.8307 17.2359C23.8152 17.208 23.7926 17.1829 23.7643 17.1623C22.8185 16.1675 21.8727 15.1728 20.9399 14.1675L20.5721 13.7906L17.2354 17.3298ZM32.9995 17.3298L36.3362 20.8691L39.6729 17.3298L36.3362 13.7906L32.9995 17.3298ZM28.4673 13.7801V13.8534L25.3013 17.2147C25.1962 17.3089 25.2357 17.3717 25.3013 17.4555L28.244 20.5969C28.3228 20.6911 28.4147 20.7853 28.5198 20.8901L31.8566 17.3508L28.4673 13.7801ZM12.7295 20.8482C12.7453 20.8175 12.7675 20.7892 12.7952 20.7644L15.9611 17.4031C16.0531 17.2984 15.9611 17.2461 15.9611 17.1623L12.8477 13.8953C12.8069 13.8484 12.7583 13.8061 12.7032 13.7696L9.37962 17.2984L12.7295 20.8482ZM32.3558 16.6597L35.6925 13.1204L32.3558 9.59162L29.019 13.1309L32.3558 16.6597ZM24.4737 8.28272L27.8105 4.74346L24.5263 1.27749H24.4606L21.2552 4.71204C21.2354 4.73712 21.2249 4.76616 21.2249 4.79581C21.2249 4.82546 21.2354 4.8545 21.2552 4.87958L24.4737 8.28272ZM24.4737 16.6597L27.8105 13.1204L24.5 9.58115L21.1633 13.1309L24.4737 16.6597ZM24.4737 25.0366L27.8105 21.4974L24.4737 17.9476L21.1633 21.466L24.4737 25.0366ZM40.2378 25.0366L43.5745 21.4974L40.2509 17.9791H40.1853L36.9668 21.3613C36.8617 21.4764 36.9668 21.5288 36.9668 21.6021L39.5941 24.4398L40.2378 25.0366ZM1.89169 25.2356H7.88204L4.91314 22.0942L1.89169 25.2356ZM41.1705 25.2356H47.1083L44.1394 22.0942L41.1705 25.2356ZM23.5542 25.2356L20.5721 22.0942L17.5901 25.2356H23.5542ZM33.3147 25.2356H39.2525L36.2836 22.0942L33.3147 25.2356ZM31.3968 25.2356L28.4279 22.0942L25.459 25.2356H31.3968ZM15.6327 25.2356L12.6638 22.0942L9.69491 25.2356H15.6327Z" fill="white"/>
<path d="M71.26 24.72H71.4C71.5493 24.72 71.68 24.6733 71.792 24.58C71.904 24.468 71.9973 24.3373 72.072 24.188C72.1653 24.0387 72.2307 23.88 72.268 23.712C72.324 23.544 72.352 23.3853 72.352 23.236V8.256C72.352 8.12533 72.324 7.976 72.268 7.808C72.2307 7.64 72.1653 7.48133 72.072 7.332C71.9973 7.18267 71.904 7.06133 71.792 6.968C71.68 6.856 71.5493 6.8 71.4 6.8H71.26V6.52H75.292V6.8H75.152C75.0027 6.8 74.872 6.856 74.76 6.968C74.648 7.06133 74.5547 7.18267 74.48 7.332C74.4053 7.48133 74.34 7.64 74.284 7.808C74.2467 7.976 74.228 8.12533 74.228 8.256V23.964H80.36C80.7147 23.964 81.0227 23.88 81.284 23.712C81.5453 23.544 81.76 23.3387 81.928 23.096C82.1147 22.8347 82.2453 22.564 82.32 22.284C82.4133 21.9853 82.46 21.7147 82.46 21.472H82.74V25H71.26V24.72Z" fill="white"/>
<path d="M97.5632 6.24C99.0192 6.24 100.326 6.50133 101.483 7.024C102.641 7.528 103.621 8.21867 104.423 9.096C105.245 9.95467 105.87 10.9627 106.299 12.12C106.747 13.2587 106.971 14.4533 106.971 15.704C106.971 17.104 106.71 18.392 106.187 19.568C105.683 20.744 104.983 21.752 104.087 22.592C103.191 23.432 102.146 24.0947 100.951 24.58C99.7752 25.0467 98.5152 25.28 97.1712 25.28C95.7339 25.28 94.4365 25.0187 93.2792 24.496C92.1405 23.9733 91.1699 23.2827 90.3672 22.424C89.5832 21.5653 88.9765 20.576 88.5472 19.456C88.1179 18.336 87.9032 17.1693 87.9032 15.956C87.9032 14.7613 88.1179 13.5853 88.5472 12.428C88.9765 11.252 89.6019 10.2067 90.4232 9.292C91.2632 8.37733 92.2805 7.64 93.4752 7.08C94.6699 6.52 96.0325 6.24 97.5632 6.24ZM97.5352 24.3C98.7859 24.244 99.8779 23.964 100.811 23.46C101.763 22.9373 102.557 22.284 103.191 21.5C103.826 20.6973 104.293 19.82 104.591 18.868C104.909 17.916 105.067 16.9733 105.067 16.04C105.067 15.0133 104.881 13.9773 104.507 12.932C104.134 11.8867 103.602 10.944 102.911 10.104C102.221 9.24533 101.39 8.55467 100.419 8.032C99.4672 7.49067 98.3939 7.22 97.1992 7.22C96.0419 7.22 95.0059 7.48133 94.0912 8.004C93.1765 8.508 92.3925 9.16133 91.7392 9.964C91.1045 10.7667 90.6192 11.6627 90.2832 12.652C89.9472 13.6413 89.7792 14.612 89.7792 15.564C89.7792 16.5907 89.9752 17.6267 90.3672 18.672C90.7592 19.6987 91.3005 20.632 91.9912 21.472C92.6819 22.312 93.4939 22.9933 94.4272 23.516C95.3792 24.0387 96.4152 24.3 97.5352 24.3Z" fill="white"/>
<path d="M114.428 6.52H118.404V6.8H118.264C118.115 6.8 117.984 6.856 117.872 6.968C117.76 7.06133 117.657 7.18267 117.564 7.332C117.489 7.48133 117.433 7.64 117.396 7.808C117.359 7.976 117.34 8.12533 117.34 8.256V19.316C117.34 20.044 117.415 20.716 117.564 21.332C117.713 21.948 117.965 22.48 118.32 22.928C118.675 23.376 119.141 23.7307 119.72 23.992C120.299 24.2347 121.008 24.356 121.848 24.356C122.781 24.356 123.528 24.2067 124.088 23.908C124.648 23.6093 125.077 23.2267 125.376 22.76C125.675 22.2747 125.871 21.7333 125.964 21.136C126.057 20.5387 126.104 19.9507 126.104 19.372V8.256C126.104 8.12533 126.085 7.976 126.048 7.808C126.011 7.64 125.945 7.48133 125.852 7.332C125.777 7.18267 125.684 7.06133 125.572 6.968C125.46 6.856 125.339 6.8 125.208 6.8H125.068V6.52H128.12V6.8H127.98C127.831 6.8 127.7 6.856 127.588 6.968C127.495 7.06133 127.401 7.18267 127.308 7.332C127.233 7.48133 127.177 7.64 127.14 7.808C127.103 7.976 127.084 8.12533 127.084 8.256V19.288C127.084 20.5013 126.935 21.5 126.636 22.284C126.337 23.0493 125.927 23.656 125.404 24.104C124.881 24.552 124.265 24.86 123.556 25.028C122.865 25.196 122.128 25.28 121.344 25.28C120.504 25.28 119.72 25.1867 118.992 25C118.283 24.832 117.667 24.524 117.144 24.076C116.621 23.628 116.211 23.0213 115.912 22.256C115.613 21.472 115.464 20.492 115.464 19.316V8.256C115.464 8.12533 115.445 7.976 115.408 7.808C115.371 7.64 115.305 7.48133 115.212 7.332C115.137 7.18267 115.044 7.06133 114.932 6.968C114.82 6.856 114.699 6.8 114.568 6.8H114.428V6.52Z" fill="white"/>
<path d="M138.076 7.5C138.076 7.612 138.104 7.752 138.16 7.92L143.088 21.192L148.016 7.78C148.034 7.74267 148.053 7.68667 148.072 7.612C148.09 7.53733 148.1 7.48133 148.1 7.444C148.1 7.22 148.006 7.06133 147.82 6.968C147.652 6.856 147.493 6.8 147.344 6.8V6.52H150.396V6.8C150.116 6.8 149.854 6.87467 149.612 7.024C149.388 7.17333 149.21 7.42533 149.08 7.78L142.668 25.336L136.116 7.864C136.004 7.584 135.836 7.34133 135.612 7.136C135.406 6.93067 135.145 6.81867 134.828 6.8V6.52H138.804V6.8C138.636 6.8 138.468 6.86533 138.3 6.996C138.15 7.108 138.076 7.276 138.076 7.5Z" fill="white"/>
<path d="M161.076 24.72H161.216V25H157.268V24.72H157.408C157.538 24.72 157.66 24.664 157.772 24.552C157.884 24.44 157.977 24.3093 158.052 24.16C158.145 24.0107 158.21 23.852 158.248 23.684C158.285 23.4973 158.304 23.3293 158.304 23.18V8.256C158.304 8.12533 158.285 7.976 158.248 7.808C158.21 7.64 158.145 7.48133 158.052 7.332C157.977 7.18267 157.884 7.06133 157.772 6.968C157.66 6.856 157.538 6.8 157.408 6.8H157.268V6.52H162.14C164.006 6.52 165.444 6.884 166.452 7.612C167.478 8.34 167.992 9.41333 167.992 10.832C167.992 11.5413 167.87 12.1667 167.628 12.708C167.404 13.2307 167.096 13.688 166.704 14.08C166.312 14.4533 165.845 14.7613 165.304 15.004C164.781 15.228 164.221 15.396 163.624 15.508L165.64 18.588C166.125 19.3347 166.62 20.072 167.124 20.8C167.628 21.5093 168.122 22.2467 168.608 23.012C168.738 23.1987 168.878 23.3947 169.028 23.6C169.196 23.8053 169.364 23.992 169.532 24.16C169.718 24.328 169.905 24.468 170.092 24.58C170.297 24.6733 170.502 24.72 170.708 24.72V25H169.504C168.757 25 168.141 24.8227 167.656 24.468C167.189 24.0947 166.797 23.6653 166.48 23.18C165.64 21.948 164.8 20.6973 163.96 19.428C163.138 18.1587 162.317 16.908 161.496 15.676C161.29 15.6573 161.066 15.6387 160.824 15.62C160.6 15.5827 160.385 15.5453 160.18 15.508V23.18C160.18 23.3293 160.198 23.4973 160.236 23.684C160.273 23.852 160.329 24.0107 160.404 24.16C160.497 24.3093 160.59 24.44 160.684 24.552C160.796 24.664 160.926 24.72 161.076 24.72ZM160.18 7.472V14.584H160.32C160.469 14.6027 160.702 14.6213 161.02 14.64C161.356 14.64 161.766 14.64 162.252 14.64C162.644 14.64 163.054 14.584 163.484 14.472C163.932 14.3413 164.342 14.136 164.716 13.856C165.108 13.5573 165.425 13.1747 165.668 12.708C165.929 12.2413 166.06 11.6533 166.06 10.944C166.06 10.2347 165.92 9.656 165.64 9.208C165.378 8.76 165.005 8.40533 164.52 8.144C164.053 7.88266 163.484 7.70533 162.812 7.612C162.14 7.51867 161.402 7.472 160.6 7.472H160.18Z" fill="white"/>
<path d="M177.389 24.72H177.529C177.678 24.72 177.809 24.6733 177.921 24.58C178.033 24.468 178.126 24.3373 178.201 24.188C178.294 24.0387 178.36 23.88 178.397 23.712C178.453 23.544 178.481 23.3853 178.481 23.236V8.256C178.481 8.12533 178.453 7.976 178.397 7.808C178.36 7.64 178.294 7.48133 178.201 7.332C178.126 7.18267 178.033 7.06133 177.921 6.968C177.809 6.856 177.678 6.8 177.529 6.8H177.389V6.52H188.169V9.124H187.889C187.852 8.69467 187.684 8.32133 187.385 8.004C187.086 7.668 186.62 7.5 185.985 7.5H180.357V14.584H185.005C185.434 14.584 185.789 14.4533 186.069 14.192C186.368 13.9307 186.517 13.6227 186.517 13.268H186.797V16.768H186.517C186.517 16.432 186.377 16.1427 186.097 15.9C185.817 15.6573 185.453 15.536 185.005 15.536H180.357V24.02H186.489C186.844 24.02 187.152 23.936 187.413 23.768C187.674 23.6 187.889 23.404 188.057 23.18C188.244 22.9373 188.374 22.6853 188.449 22.424C188.542 22.144 188.589 21.9107 188.589 21.724H188.869V25H177.389V24.72Z" fill="white"/>
</svg>
